<?xml version="1.0" encoding="utf-8"?>
<svg version="1.1" xmlns="http://www.w3.org/2000/svg" x="0px" y="0px" viewBox="0 0 96 96" enable-background="new 0 0 256 256" xmlns:bx="https://boxy-svg.com" width="96px" height="96px"><defs><bx:export><bx:file format="svg"/></bx:export></defs><g transform="matrix(0.389558, 0, 0, 0.389558, -1.889829, -1.877926)" style=""><g><g><path d="M116.9,54.4c-40.1,4.2-76.6,27.4-103.3,65.7c-4.9,7.1-4.9,8.3,0.5,16c9.8,13.7,19.8,24.6,32,34.5c1.9,1.6,3.5,3,3.5,3.2c0,0.1-5.2,3.7-11.5,7.8c-6.4,4.2-11.9,8-12.2,8.5c-1.3,1.9-0.8,4,1.8,7.7c2.6,3.8,4.4,4.8,6.5,3.8c0.6-0.3,30.1-19.6,65.6-42.8c35.5-23.3,79-51.8,96.8-63.5c17.8-11.7,32.7-21.7,33.3-22.3c1.7-1.9,1.3-4-1.4-8c-2.4-3.6-4-4.6-6-4c-0.6,0.1-6.2,3.6-12.5,7.8l-11.5,7.6l-6-3.7c-15.5-9.4-31.1-15.1-48.5-17.7C138.4,54.2,122.4,53.8,116.9,54.4z M138.8,84.8c5.3,1.4,12.3,4.9,16.6,8.4c3.3,2.7,7.1,6.6,6.6,7c-0.5,0.4-72.9,47.8-73,47.8c-0.4,0-3.2-6.8-4.1-10c-1.3-4.8-1.4-15.4-0.2-20.2c4.4-17.5,17.9-30.4,35.5-33.8C125,83.2,134.1,83.5,138.8,84.8z" style="fill: rgb(255, 255, 255);"/><path d="M197.2,112.5c-13.5,8.9-24.7,16.2-24.7,16.3c0,0-0.4,2-0.6,4.2c-2.4,18.2-15.2,32.8-33,37.7c-5.4,1.4-15.9,1.4-21.3,0c-2.1-0.6-4.3-1.2-4.9-1.5c-1-0.4-2.8,0.6-17.4,10.2c-9,5.9-16.5,10.8-16.7,11c-0.7,0.7,12.1,5.3,20.7,7.5c33.2,8.4,68.3,1.9,98.9-18.4c16-10.7,32.1-26.6,44.3-44.1c4.9-7,4.9-8.3-0.2-15.6c-6.1-8.6-18.6-23.4-19.8-23.4C222,96.3,210.7,103.6,197.2,112.5z" style="fill: rgb(255, 255, 255);"/></g></g></g></svg>